<svg xmlns="http://www.w3.org/2000/svg" viewBox="0 0 800 500" width="800" height="500" role="img" aria-label="项目封面：玩法系统与 Shader">
  <defs><style>.mono{font-family:'JetBrains Mono','DejaVu Sans Mono',ui-monospace,monospace;}.sans{font-family:'Noto Sans CJK SC','PingFang SC','Microsoft YaHei',system-ui,sans-serif;}</style></defs>
  <rect width="800" height="500" fill="#f1f1f2"/>
  <rect x="40" y="40" width="22" height="22" rx="4" fill="#e60000"/>
  <rect x="68" y="40" width="22" height="22" rx="4" fill="none" stroke="#11111a" stroke-width="2"/>
  <rect x="96" y="40" width="22" height="22" rx="4" fill="none" stroke="#11111a" stroke-width="2"/>
  <text x="760" y="58" text-anchor="end" class="mono" font-size="22" letter-spacing="2" fill="#11111a">SCORE 1280</text>
  <path d="M40 150 C120 112 200 188 280 150 S440 112 520 150 S680 188 760 150" fill="none" stroke="#11111a" stroke-width="2" opacity="0.45"/>
  <path d="M40 170 C120 132 200 208 280 170 S440 132 520 170 S680 208 760 170" fill="none" stroke="#e60000" stroke-width="2" opacity="0.7"/>
  <g stroke="#11111a" stroke-width="2" fill="#ffffff">
    <rect x="40" y="380" width="80" height="80"/>
    <rect x="120" y="380" width="80" height="80"/>
    <rect x="200" y="380" width="80" height="80"/>
    <rect x="520" y="380" width="80" height="80"/>
    <rect x="600" y="380" width="80" height="80"/>
    <rect x="680" y="380" width="80" height="80"/>
  </g>
  <rect x="360" y="300" width="120" height="26" rx="6" fill="#ffffff" stroke="#11111a" stroke-width="2"/>
  <path d="M250 360 Q360 210 470 300" fill="none" stroke="#9a9aa2" stroke-width="2" stroke-dasharray="6 8"/>
  <rect x="335" y="234" width="44" height="44" rx="8" fill="#e60000"/>
  <circle cx="640" cy="300" r="18" fill="none" stroke="#11111a" stroke-width="2"/>
  <circle cx="640" cy="300" r="7" fill="#e60000"/>
  <text x="40" y="478" class="mono" font-size="22" letter-spacing="2" font-weight="700" fill="#11111a">02 / 奇境岛游乐园</text>
  <text x="760" y="478" text-anchor="end" class="mono" font-size="16" letter-spacing="2" fill="#6e6e73">VR · 沉浸式体验</text>
</svg>
