<svg xmlns="http://www.w3.org/2000/svg" viewBox="0 0 800 500" width="800" height="500" role="img" aria-label="项目封面：编辑器工具">
  <defs><style>.mono{font-family:'JetBrains Mono','DejaVu Sans Mono',ui-monospace,monospace;}.sans{font-family:'Noto Sans CJK SC','PingFang SC','Microsoft YaHei',system-ui,sans-serif;}</style></defs>
  <rect width="800" height="500" fill="#f1f1f2"/>
  <rect x="40" y="40" width="720" height="380" rx="14" fill="#ffffff" stroke="#11111a" stroke-width="2"/>
  <line x1="40" y1="82" x2="760" y2="82" stroke="#e6e6e8" stroke-width="2"/>
  <circle cx="64" cy="61" r="5" fill="none" stroke="#11111a" stroke-width="1.5"/>
  <circle cx="82" cy="61" r="5" fill="none" stroke="#11111a" stroke-width="1.5"/>
  <circle cx="100" cy="61" r="5" fill="none" stroke="#11111a" stroke-width="1.5"/>
  <text x="736" y="67" text-anchor="end" class="mono" font-size="15" fill="#9a9aa2">Editor</text>
  <rect x="40" y="82" width="170" height="338" fill="#f6f6f7"/>
  <rect x="60" y="112" width="110" height="10" rx="5" fill="#d7d7db"/>
  <rect x="60" y="136" width="130" height="10" rx="5" fill="#d7d7db"/>
  <rect x="74" y="160" width="116" height="10" rx="5" fill="#d7d7db"/>
  <rect x="56" y="182" width="142" height="22" rx="5" fill="rgba(230,0,0,.14)"/>
  <rect x="74" y="188" width="92" height="10" rx="5" fill="#e60000"/>
  <rect x="74" y="218" width="100" height="10" rx="5" fill="#d7d7db"/>
  <rect x="60" y="242" width="120" height="10" rx="5" fill="#d7d7db"/>
  <text x="240" y="132" class="mono" font-size="20" fill="#11111a">public class <tspan fill="#e60000">ToolWindow</tspan> {</text>
  <text x="262" y="168" class="mono" font-size="20" fill="#6e6e73">void OnGUI() {</text>
  <text x="284" y="204" class="mono" font-size="20" fill="#6e6e73">Draw();</text>
  <text x="262" y="240" class="mono" font-size="20" fill="#6e6e73">}</text>
  <text x="240" y="276" class="mono" font-size="20" fill="#11111a">}</text>
  <rect x="336" y="260" width="3" height="22" fill="#e60000"/>
  <rect x="600" y="112" width="130" height="10" rx="5" fill="#d7d7db"/>
  <line x1="600" y1="152" x2="730" y2="152" stroke="#dcdce0" stroke-width="2"/>
  <circle cx="660" cy="152" r="7" fill="#11111a"/>
  <line x1="600" y1="188" x2="730" y2="188" stroke="#dcdce0" stroke-width="2"/>
  <circle cx="695" cy="188" r="7" fill="#11111a"/>
  <rect x="600" y="218" width="52" height="26" rx="13" fill="#e60000"/>
  <circle cx="639" cy="231" r="9" fill="#ffffff"/>
  <rect x="600" y="360" width="130" height="40" rx="9" fill="#11111a"/>
  <rect x="620" y="375" width="90" height="10" rx="5" fill="#ffffff" opacity="0.9"/>
  <text x="40" y="470" class="mono" font-size="22" letter-spacing="2" font-weight="700" fill="#11111a">03 / 关卡配置工具</text>
  <text x="760" y="470" text-anchor="end" class="mono" font-size="16" letter-spacing="2" fill="#6e6e73">可视化配置 · 编辑器</text>
</svg>
